<svg xmlns="http://www.w3.org/2000/svg" viewBox="0 0 512 512" width="512" height="512">
  <defs>
    <linearGradient id="bgGrad512" x1="0%" y1="0%" x2="100%" y2="100%">
      <stop offset="0%" stop-color="#2563eb" />
      <stop offset="50%" stop-color="#1d4ed8" />
      <stop offset="100%" stop-color="#1e1b4b" />
    </linearGradient>
    <linearGradient id="glowGrad512" x1="0%" y1="0%" x2="100%" y2="100%">
      <stop offset="0%" stop-color="#93c5fd" />
      <stop offset="100%" stop-color="#3b82f6" />
    </linearGradient>
  </defs>
  <rect width="512" height="512" rx="112" fill="url(#bgGrad512)" />
  <circle cx="256" cy="256" r="160" fill="url(#glowGrad512)" opacity="0.2" />
  <!-- Bell -->
  <path d="M256 122c-55.9 0-101.3 45.4-101.3 101.3v64l-26.7 37.3v16h256v-16l-26.7-37.3v-64c0-55.9-45.4-101.3-101.3-101.3z" fill="#ffffff" />
  <path d="M224 356c0 17.7 14.3 32 32 32s32-14.3 32-32h-64z" fill="#ffffff" />
  <!-- Pulse wave rings -->
  <path d="M378 176c14 17.3 22 39 22 61.3s-8 44-22 61.3" stroke="#60a5fa" stroke-width="16" stroke-linecap="round" fill="none" />
  <path d="M134 176c-14 17.3-22 39-22 61.3s8 44 22 61.3" stroke="#60a5fa" stroke-width="16" stroke-linecap="round" fill="none" />
  <circle cx="256" cy="112" r="14" fill="#60a5fa" />
</svg>
